<svg width="218" height="218" viewBox="0 0 218 218" fill="none" xmlns="http://www.w3.org/2000/svg">
<g filter="url(#filter0_d_136_127)">
<path d="M95.0354 172.728V172.729C97.7172 173.316 100.461 173.739 103.255 173.985V129.411L100.811 128.329C93.7094 125.184 88.7692 118.084 88.7692 109.84C88.7692 101.597 93.7094 94.4968 100.811 91.3518L103.255 90.2693V63.0058L98.2031 64.1943C86.9813 66.8344 77.3231 73.4907 70.8221 82.5549L63.3227 76.3027C73.6473 62.2913 90.2634 53.2116 109 53.2116C127.736 53.2116 144.353 62.2914 154.677 76.3028L147.178 82.555C140.677 73.4908 131.019 66.8345 119.797 64.1943L114.745 63.0058V90.2693L117.189 91.3518C124.29 94.4969 129.23 101.597 129.23 109.84C129.23 118.084 124.29 125.183 117.189 128.329L114.745 129.411V174C117.539 173.76 120.282 173.345 122.964 172.765V172.728C152.152 166.345 174 140.367 174 109.291C174 100.456 172.234 92.0333 169.035 84.3556L162.153 89.8312C164.379 95.8985 165.594 102.453 165.594 109.291C165.594 135.703 147.467 157.886 122.964 164.098V134.609C131.606 129.736 137.45 120.474 137.45 109.84C137.45 99.2068 131.606 89.9446 122.964 85.0718V73.7496C131.316 76.9777 138.274 83.0207 142.666 90.72L145.098 94.984L165.603 77.8893L163.642 74.8399C152.107 56.8998 131.946 45 109 45C86.0541 45 65.8928 56.8997 54.3576 74.8397L52.3969 77.8891L72.9019 94.9838L75.334 90.7198C79.7253 83.0206 86.684 76.9776 95.0355 73.7496V85.0717C86.3941 89.9446 80.5499 99.2067 80.5499 109.84C80.5499 120.474 86.3941 129.736 95.0355 134.609L95.0354 164.098C70.5328 157.885 52.4061 135.703 52.4061 109.291C52.4061 102.453 53.6211 95.8984 55.8473 89.831L48.9646 84.3554C45.766 92.0332 44 100.456 44 109.291C44 140.367 65.8482 166.344 95.0354 172.728Z" fill="#E3E3E3"/>
<path d="M63.7732 96.1365C62.5588 100.311 61.9077 104.725 61.9077 109.291C61.9077 128.218 73.0937 144.534 89.2209 152.001V142.515C77.8984 135.772 70.3138 123.417 70.3138 109.291C70.3138 106.764 70.5566 104.294 71.0201 101.902L63.7732 96.1365Z" fill="#E3E3E3"/>
<path d="M156.092 109.291C156.092 128.217 144.906 144.533 128.78 152.001V142.514C140.102 135.772 147.686 123.416 147.686 109.291C147.686 106.764 147.443 104.294 146.98 101.902L154.227 96.1367C155.441 100.311 156.092 104.725 156.092 109.291Z" fill="#E3E3E3"/>
<path d="M120.329 109.291C120.329 115.542 115.257 120.61 109 120.61C102.743 120.61 97.6703 115.542 97.6703 109.291C97.6703 103.04 102.743 97.9724 109 97.9724C115.257 97.9724 120.329 103.04 120.329 109.291Z" fill="#E3E3E3"/>
</g>
<defs>
<filter id="filter0_d_136_127" x="34" y="39" width="150" height="149" filterUnits="userSpaceOnUse" color-interpolation-filters="sRGB">
<feFlood flood-opacity="0" result="BackgroundImageFix"/>
<feColorMatrix in="SourceAlpha" type="matrix" values="0 0 0 0 0 0 0 0 0 0 0 0 0 0 0 0 0 0 127 0" result="hardAlpha"/>
<feOffset dy="4"/>
<feGaussianBlur stdDeviation="5"/>
<feComposite in2="hardAlpha" operator="out"/>
<feColorMatrix type="matrix" values="0 0 0 0 0 0 0 0 0 0 0 0 0 0 0 0 0 0 0.25 0"/>
<feBlend mode="normal" in2="BackgroundImageFix" result="effect1_dropShadow_136_127"/>
<feBlend mode="normal" in="SourceGraphic" in2="effect1_dropShadow_136_127" result="shape"/>
</filter>
</defs>
</svg>
